# xmcd
#
# Track frame offsets: 
#        182
#        10857
#        24845
#        39820
#        55820
#        71395
#        86970
#        105795
#        125520
#        136932
#        152557
#        167132
#        179145
#        191882
#        207857
#        221720
#        244820
#
# Disc length: 3513 seconds
#
# Revision: 6
# Processed by: cddbd v1.5.2PL0 Copyright (c) Steve Scherf et al.
# Submitted via: ExactAudioCopy v0.95b4
#
DISCID=e50db711
DTITLE=Various Artist - Motown meets the Beatles
DYEAR=1995
DGENRE=Soul
TTITLE0=Supremes - A Hard Day's Night
TTITLE1=Four Tops - Eleanor Rigby
TTITLE2=Stevie Wonder - We Can Work It Out
TTITLE3=Temptations - Hey Jude
TTITLE4=Marvin Gaye - Yesterday
TTITLE5=Diana Ross - The Long and Winding Road
TTITLE6=Supremes - Come Together
TTITLE7=Syreeta - She's Leaving Home
TTITLE8=Supremes - You Can't Do That
TTITLE9=Four Tops - The Fool on the Hill
TTITLE10=Four Tops - Michelle
TTITLE11=Smokey Robinson - And I Love Her
TTITLE12=Martha Reeves - Something
TTITLE13=Gladys Knight - Let It Be
TTITLE14=Diana Ross - Imagine
TTITLE15=Jr. Walker - My Love
TTITLE16=Edwin Starr - My Sweet Lord
EXTD=YEAR: 1995 ID3G: 42
EXTT0=
EXTT1=
EXTT2=
EXTT3=
EXTT4=
EXTT5=
EXTT6=
EXTT7=
EXTT8=
EXTT9=
EXTT10=
EXTT11=
EXTT12=
EXTT13=
EXTT14=
EXTT15=
EXTT16=
PLAYORDER=
